#format: frame checksums
#version: 2
#hash: MD5
#tb 0: 1001/30000
#media_type 0: video
#codec_id 0: rawvideo
#dimensions 0: 352x288
#sar 0: 1/1
#stream#, dts,        pts, duration,     size, hash
0,          0,          0,        1,   152064, f4e04a0f92fab3a52d858bb222807ac0
0,          1,          1,        1,   152064, 493cb96b8202a1518c6c9bdb848540e4
0,          2,          2,        1,   152064, 60b5b63f832cff119a43de82102758f4
0,          3,          3,        1,   152064, 0d9bd42e279d480603f9c670f0a8ffe3
0,          4,          4,        1,   152064, 25ca563f233688f32f40fec985a116a2
0,          5,          5,        1,   152064, dd14b43d538708a91de41606703dbe1c
0,          6,          6,        1,   152064, 01bb23cb43960ff185a97ea79936d3b4
0,          7,          7,        1,   152064, 85045c4310ee80cd12979bdea4f3f86e
0,          8,          8,        1,   152064, c8e015ea13359a05483de349313a6686
0,          9,          9,        1,   152064, 8dbb0406bf6fe19c30a9c9253fcdfe7f
0,         10,         10,        1,   152064, 84881463643069036d03e8120a5f15e9
0,         11,         11,        1,   152064, 9abcd3f2f86ff31f8d357389b330df59
0,         12,         12,        1,   152064, 19ada6395c4e656578d2ceeaba291bb2
0,         13,         13,        1,   152064, fc29773a6f32eed2bfa44143f8f505b1
0,         14,         14,        1,   152064, 5e56bd91f5e3d1457c124b5702bdc3b6
0,         15,         15,        1,   152064, 5b920d73e301adb6c45699a209f09a33
0,         16,         16,        1,   152064, 4d06ec294270638c6abdd1c2303b34fc
0,         17,         17,        1,   152064, dc99797067851f74708d7e6ff54367d8
0,         18,         18,        1,   152064, 5df68b49124219592b043916affb1311
0,         19,         19,        1,   152064, cfb52d101fad76acb1bb0d48c513bffd
0,         20,         20,        1,   152064, 206dbd55680b8a83d8bafe33c54c3e36
0,         21,         21,        1,   152064, 171f2e26771db631788065eecf6c44d9
0,         22,         22,        1,   152064, b10809dcf9ecfdb4f86a6f3236ac273e
0,         23,         23,        1,   152064, b354107bdea9bd011b09d9f4a32d4e89
0,         24,         24,        1,   152064, 0c18be13dc6fbf79a613f2b24bb301c1
